<svg viewBox="0 0 233 38" xmlns="http://www.w3.org/2000/svg" fill-rule="evenodd" clip-rule="evenodd" stroke-linejoin="round" stroke-miterlimit="1.414"><g fill="#373c42" fill-rule="nonzero"><path d="M86.148 23.228v-7.699h-2.005v-1.073h2.005v-3.079h1.265v3.079h2.097v1.073h-2.097v7.699h-1.265zM91.635 23.228v-8.772H92.9v8.772h-1.265zm0-9.83v-2.021H92.9v2.021h-1.265zM95.89 11.377h1.265v11.85H95.89zM109.482 19.233h-8.429c.05.867.427 1.602 1.131 2.205.705.603 1.537.905 2.497.905a3.67 3.67 0 0 0 1.963-.553c.599-.368 1.029-.852 1.29-1.452h1.315a4.623 4.623 0 0 1-1.764 2.243 4.783 4.783 0 0 1-2.771.858c-.677 0-1.32-.12-1.931-.36a4.867 4.867 0 0 1-1.572-.979 4.54 4.54 0 0 1-1.04-1.481 4.428 4.428 0 0 1-.383-1.817c0-.835.214-1.603.641-2.302a4.562 4.562 0 0 1 1.747-1.653 5.014 5.014 0 0 1 2.438-.603c.921 0 1.768.214 2.542.642a4.393 4.393 0 0 1 1.768 1.747c.206.371.35.75.433 1.139.083.389.125.876.125 1.461zm-8.396-1.073h7.139c-.21-.872-.639-1.561-1.285-2.068-.646-.506-1.422-.759-2.326-.759-.882 0-1.647.259-2.296.779-.65.52-1.06 1.202-1.232 2.048zM111.307 20.643h1.24c.033.543.203.962.508 1.257.305.295.721.443 1.248.443.46 0 .838-.143 1.132-.427.294-.285.441-.649.441-1.093 0-.402-.118-.713-.354-.932-.236-.219-.72-.47-1.452-.752a28.308 28.308 0 0 1-1.219-.501 2.423 2.423 0 0 1-.504-.353c-.465-.407-.698-.929-.698-1.566 0-.715.248-1.307.744-1.774.497-.467 1.128-.701 1.893-.701.749 0 1.369.219 1.86.658.491.439.747 1.01.77 1.715h-1.282c-.033-.418-.168-.736-.403-.955-.236-.22-.556-.329-.961-.329-.372 0-.69.122-.953.368a1.18 1.18 0 0 0-.395.901c0 .501.291.892.873 1.174l1.739.69c1.077.423 1.615 1.169 1.615 2.24 0 .804-.264 1.46-.791 1.969-.527.51-1.212.764-2.055.764-.904 0-1.627-.253-2.168-.76-.541-.506-.817-1.185-.828-2.036zM120.588 21.624a.925.925 0 0 0-.937.914c0 .465.426.866.92.866.529 0 .972-.385.972-.866 0-.497-.443-.914-.955-.914zM133.554 11.377v11.851h-2.08v-1.152c-.461.481-.935.828-1.423 1.042-.488.214-1.051.321-1.689.321a4.831 4.831 0 0 1-2.409-.611 4.483 4.483 0 0 1-1.71-1.684 4.633 4.633 0 0 1-.624-2.373c0-.872.209-1.673.628-2.404a4.59 4.59 0 0 1 1.714-1.724 4.694 4.694 0 0 1 2.384-.626c.594 0 1.15.099 1.669.298.518.198.944.469 1.277.814v-3.752h2.263zm-4.926 4.598c-.765 0-1.41.261-1.935.783-.524.522-.786 1.17-.786 1.943 0 .778.273 1.435.82 1.973.546.538 1.21.807 1.993.807.765 0 1.413-.264 1.943-.791.529-.527.794-1.172.794-1.935 0-.804-.266-1.468-.799-1.993-.532-.525-1.209-.787-2.03-.787zM145.338 14.338v8.89h-2.072v-1.152c-.455.486-.925.834-1.41 1.046-.486.211-1.061.317-1.727.317-.91 0-1.726-.197-2.45-.591a4.296 4.296 0 0 1-1.698-1.649c-.407-.705-.611-1.499-.611-2.381 0-.893.205-1.696.615-2.408a4.37 4.37 0 0 1 1.714-1.673c.733-.402 1.559-.603 2.48-.603.682 0 1.27.111 1.764.333.494.222.935.576 1.323 1.062v-1.191h2.072zm-4.959 1.754c-.788 0-1.438.262-1.951.784-.514.522-.77 1.185-.77 1.989 0 .778.259 1.409.778 1.892.519.483 1.191.724 2.018.724.821 0 1.482-.245 1.984-.736s.753-1.133.753-1.927c0-.804-.262-1.459-.786-1.966-.524-.506-1.2-.76-2.026-.76zM148.445 23.228V16.28h-1.107v-1.942h1.107v-2.961h2.263v2.961h1.365v1.942h-1.365v6.948h-2.263zM163.517 14.338v8.89h-2.071v-1.152c-.455.486-.925.834-1.411 1.046-.485.211-1.061.317-1.726.317-.91 0-1.727-.197-2.451-.591a4.287 4.287 0 0 1-1.697-1.649c-.408-.705-.612-1.499-.612-2.381 0-.893.205-1.696.616-2.408.41-.713.982-1.27 1.714-1.673.732-.402 1.559-.603 2.48-.603.682 0 1.27.111 1.764.333.493.222.934.576 1.323 1.062v-1.191h2.071zm-4.959 1.754c-.787 0-1.438.262-1.951.784-.513.522-.77 1.185-.77 1.989 0 .778.26 1.409.778 1.892.519.483 1.192.724 2.018.724.821 0 1.483-.245 1.985-.736s.753-1.133.753-1.927c0-.804-.262-1.459-.787-1.966-.524-.506-1.199-.76-2.026-.76zM167.423 21.624a.925.925 0 0 0-.937.914c0 .465.426.866.92.866.528 0 .972-.385.972-.866 0-.497-.444-.914-.955-.914zM178.618 14.338h2.164v7.206c0 .882-.082 1.614-.246 2.197a3.73 3.73 0 0 1-.795 1.492c-.898 1.028-2.182 1.543-3.852 1.543-1.154 0-2.155-.248-3.004-.744a4.338 4.338 0 0 1-1.847-2.084h2.571c.333.345.68.589 1.04.732.361.144.804.216 1.331.216.844 0 1.484-.235 1.923-.705.438-.47.676-1.183.715-2.138-.444.491-.905.844-1.385 1.061-.48.217-1.053.325-1.719.325-.887 0-1.685-.201-2.392-.603a4.235 4.235 0 0 1-1.651-1.68c-.394-.718-.591-1.529-.591-2.432 0-1.316.441-2.41 1.323-3.282.882-.872 1.991-1.308 3.328-1.308 1.354 0 2.383.444 3.087 1.332v-1.128zm-2.862 1.754c-.777 0-1.402.25-1.877.748-.474.499-.711 1.158-.711 1.978 0 .809.24 1.456.72 1.939.48.483 1.124.724 1.934.724.821 0 1.476-.244 1.964-.732.488-.489.732-1.142.732-1.962 0-.804-.253-1.454-.761-1.95-.508-.497-1.175-.745-2.001-.745zM188.091 14.134c.898 0 1.73.209 2.496.627.765.418 1.37.986 1.814 1.703.444.718.665 1.498.665 2.338 0 .836-.223 1.61-.669 2.323a4.798 4.798 0 0 1-1.827 1.691 5.206 5.206 0 0 1-2.513.623 5.25 5.25 0 0 1-2.525-.623 4.82 4.82 0 0 1-1.835-1.691 4.277 4.277 0 0 1-.674-2.323c0-.637.132-1.244.395-1.821a4.586 4.586 0 0 1 1.074-1.488 5.136 5.136 0 0 1 1.618-.991 5.394 5.394 0 0 1 1.981-.368zm-.092 1.958c-.732 0-1.363.265-1.893.795a2.592 2.592 0 0 0-.795 1.9c0 .741.267 1.376.799 1.903a2.635 2.635 0 0 0 1.922.791c.755 0 1.401-.262 1.939-.787s.807-1.155.807-1.892c0-.762-.269-1.404-.807-1.926s-1.195-.784-1.972-.784zM203.671 14.338v8.89h-2.097v-.854c-.433.392-.85.667-1.253.826-.402.159-.886.239-1.452.239-.637 0-1.209-.121-1.714-.364a3.095 3.095 0 0 1-1.223-1.038 3.51 3.51 0 0 1-.516-1.19c-.1-.434-.149-1.013-.149-1.739v-4.77h2.271v4.347c0 .616.036 1.098.108 1.445.072.347.194.62.366.818.328.355.766.533 1.315.533.394 0 .745-.074 1.053-.223.308-.149.542-.359.703-.631.122-.198.206-.455.254-.771.047-.316.07-.759.07-1.328v-4.19h2.264zM209.291 23.228l-3.803-8.89h2.521l2.18 5.89 2.147-5.89h2.563l-3.803 8.89h-1.805zM216.093 21.624c-.481 0-.882.401-.882.914 0 .465.401.866.866.866.497 0 .914-.385.914-.866 0-.497-.417-.914-.898-.914z"/><path d="M219.101 15.003h1.862l-1.882 8.716c-.491 2.25-1.167 3.376-2.046 3.376-.246 0-.41-.144-.41-.348 0-.062.021-.103.082-.205a.611.611 0 0 0 .103-.348.804.804 0 0 0-.819-.798c-.43 0-.757.389-.757.88 0 .696.716 1.248 1.616 1.248 1.862 0 3.315-2.046 4.215-5.872l1.535-6.649h2.271l.123-.655h-2.231c.614-3.274 1.412-4.726 2.558-4.726.286 0 .45.102.45.266 0 .041-.02.102-.082.204a.697.697 0 0 0-.123.43c0 .491.307.818.757.818.471 0 .88-.388.88-.839 0-.757-.757-1.329-1.78-1.329-1.002 0-1.821.45-2.578 1.411-.614.819-1.043 1.76-1.677 3.765h-1.924l-.143.655zM226.323 23.228c1.126-3.581 1.474-4.42 2.415-5.995.716-1.166 1.289-1.801 1.637-1.801.143 0 .245.082.347.287.164.348.328.45.737.45.614 0 .962-.368.962-1.023 0-.655-.389-1.064-.962-1.064-.471 0-1.044.307-1.576.88-.859.859-1.718 2.107-2.046 2.905l-.306.757 1.145-4.501-.061-.041c-1.494.266-1.719.307-3.212.552v.348c.45-.082.532-.102.695-.102.451 0 .716.205.716.573 0 .266-.163 1.105-.327 1.718l-1.739 6.057h1.575z"/></g><clipPath id="a"><path d="M0 0h70.339v37.2H0z"/></clipPath><g clip-path="url(#a)" fill-rule="nonzero"><path fill="#fff" d="M0 0h69.981v21.351H0z"/><path d="M55.884 37.176c-.039-.014-.041-.052-.009-.136.041-.106.06-.115.218-.096.143.018.185.006.243-.072.116-.148.027-.255-.185-.22-.162.028-.162.026-.131-.085.096-.353.104-.333-.185-.385a1.757 1.757 0 0 1-.936-.495c-.386-.385-.517-.774-.478-1.401.019-.318.046-.443.158-.665.339-.679 1.117-1.024 2.165-.963.228.014.513.049.64.078l.227.052.024.755h-.139c-.081 0-.139-.022-.139-.052 0-.109-.281-.355-.478-.423-.254-.089-.747-.067-.998.041-.566.247-.824.887-.651 1.619.081.337.212.565.462.8.239.221.482.311.844.311.382 0 .648-.139.817-.426.116-.195.154-.221.266-.157.05.029.05.097.004.407l-.058.374-.208.063a3.517 3.517 0 0 1-.582.09c-.358.023-.377.03-.377.12 0 .071.027.097.104.097.15 0 .293.105.327.243.039.161-.088.396-.254.475-.12.056-.59.078-.709.034l.018.017zm-27.072-.173c-.393-.104-.732-.262-1.141-.531l-.35-.232-.543-.026c-.605-.028-.817-.089-1.207-.348-.863-.571-.894-2.026-.057-2.733.632-.533 1.737-.643 2.531-.252 1.075.528 1.191 2.085.212 2.901-.15.126-.297.23-.327.23-.093 0 .978.528 1.291.636.346.12.747.136 1.044.041.216-.068.254-.06.289.065.023.073-.016.103-.231.194-.343.144-1.06.17-1.492.055h-.019zm-1.333-1.269c.763-.358.909-1.509.285-2.244-.578-.68-1.591-.577-1.973.201-.343.703.05 1.79.751 2.078.286.116.648.103.941-.035h-.004zm-23.915.426c-.208-.082-.437-.338-.8-.894-.556-.854-.661-.979-.817-.979h-.134l.001.462c.002.843.096 1.132.39 1.199.079.017.11.053.11.126v.102H.449v-.093c0-.072.034-.105.142-.135a.53.53 0 0 0 .239-.153c.094-.113.096-.154.096-1.709 0-1.555-.002-1.596-.096-1.709a.565.565 0 0 0-.239-.153c-.104-.026-.142-.06-.142-.127 0-.09.004-.09 1.155-.116 1.224-.026 1.494-.007 1.839.146.302.131.553.531.554.879 0 .4-.328.848-.761 1.043l-.228.101.502.676c.59.8.775 1.013.948 1.096.162.075.178.243.027.276-.185.045-.782.027-.921-.03v-.008zm-1.138-2.288c.61-.153.816-.918.355-1.316a.887.887 0 0 0-.742-.219l-.224.028v1.552h.216c.12 0 .301-.02.397-.045h-.002zM12.91 36.16c-.249-.08-.484-.223-.609-.37-.226-.268-.25-.409-.253-1.498-.003-1.138-.027-1.263-.258-1.36-.092-.039-.147-.091-.148-.144-.001-.078.029-.082.773-.082.772 0 .774 0 .774.093 0 .062-.027.092-.084.092-.045 0-.132.048-.193.106l-.11.106v1.116c0 1.05.005 1.125.094 1.278.139.239.416.361.772.342.381-.021.589-.143.739-.44.116-.227.12-.238.12-1.237 0-.894-.008-1.02-.081-1.118a.398.398 0 0 0-.193-.136c-.073-.016-.115-.055-.115-.104 0-.072.042-.077.612-.077.571 0 .613.005.613.077 0 .049-.042.088-.112.104-.212.044-.227.134-.25 1.319l-.023 1.111-.139.239a1.21 1.21 0 0 1-.759.572c-.285.075-.952.079-1.179.004l.009.007zm17.746 0c-.252-.081-.485-.224-.614-.376-.215-.254-.245-.441-.248-1.514-.004-1.114-.031-1.241-.258-1.338-.097-.039-.151-.091-.151-.144-.003-.078.027-.082.771-.082.763 0 .771.001.771.09 0 .06-.035.093-.1.103a.368.368 0 0 0-.193.129c-.089.108-.096.175-.112 1.076-.019 1.105.016 1.338.224 1.53.373.348 1.156.25 1.375-.168.139-.266.174-.595.158-1.466-.019-.92-.05-1.036-.289-1.088-.073-.015-.115-.052-.115-.101 0-.071.042-.075.612-.075.571 0 .617.008.617.079 0 .048-.054.097-.135.127-.073.03-.15.082-.169.12-.02.037-.047.568-.062 1.181l-.027 1.114-.139.243a1.205 1.205 0 0 1-.763.572c-.285.079-.952.082-1.179.008l.026-.02zm14.402-.001c-.182-.072-.398-.315-.733-.825-.432-.658-.481-.717-.594-.717-.1-.001-.102.007-.102.513 0 .614.057.787.271.826.108.019.139.046.139.122v.098h-1.548v-.098c0-.076.031-.103.139-.122.259-.047.277-.158.262-1.587l-.014-1.266-.11-.106c-.061-.058-.148-.106-.194-.106-.051 0-.082-.03-.082-.078 0-.068.046-.083.335-.107.185-.019.69-.023 1.125-.015.709.011.813.022.983.104.3.143.47.423.47.774 0 .337-.212.632-.601.83-.124.064-.205.127-.178.142.027.015.228.27.447.569.432.587.671.848.771.848.089 0 .081.191-.008.221-.127.045-.628.022-.77-.034l-.008.014zm-.84-1.932c.181-.084.358-.287.391-.448.043-.205-.058-.474-.231-.624-.161-.134-.316-.176-.585-.146l-.164.019v1.264h.23c.123 0 .285-.027.358-.06l.001-.005zm20.253 1.925a2.043 2.043 0 0 1-.266-.077 2.839 2.839 0 0 1-.073-.407l-.056-.393h.128c.07 0 .128.015.128.034 0 .108.299.422.472.497.468.205 1.03.011 1.029-.352 0-.239-.128-.381-.567-.628-.615-.347-.853-.531-.975-.755-.123-.22-.144-.568-.052-.819.061-.164.347-.415.588-.508.242-.097 1-.094 1.314.004l.238.074v.733h-.131c-.102 0-.138-.022-.16-.101-.047-.172-.291-.385-.495-.433-.544-.131-.983.373-.64.74.065.071.362.276.659.46.578.351.79.545.863.774.158.508-.104.96-.667 1.147-.3.105-.951.112-1.333.019l-.004-.009zm-59.609-.086c0-.074.025-.095.11-.095.066 0 .149-.045.205-.109.091-.104.094-.155.094-1.398 0-.902-.019-1.318-.054-1.38-.069-.115-.177-.19-.277-.191-.054-.001-.081-.035-.081-.105v-.102h2.732v.867l-.12-.012c-.092-.01-.135-.048-.173-.154-.093-.244-.243-.307-.782-.325l-.478-.016v1.17l.366-.019c.397-.021.597-.108.624-.273.008-.065.046-.088.135-.088h.119v1.069h-.123c-.1 0-.127-.019-.127-.097 0-.184-.154-.251-.597-.266l-.405-.015v.58c0 .695.004.706.524.706.513 0 .779-.116.913-.4.066-.142.224-.183.274-.071.031.075-.096.557-.193.726l-.069.119-1.318-.007-1.318-.008v-.093l.019-.013zm3.503.012c0-.074.031-.102.131-.121.239-.043.251-.105.266-1.423.016-1.374-.004-1.497-.254-1.602-.104-.043-.147-.089-.15-.157v-.097l1.032.017c1.118.019 1.21.038 1.515.266.331.254.42.759.192 1.133-.196.329-.539.501-1.079.549l-.285.026-.069-.157-.073-.157.165-.022a.939.939 0 0 0 .567-.299c.069-.083.096-.172.092-.329-.007-.4-.254-.643-.689-.677l-.247-.019.011 1.372c.016 1.496.024 1.537.278 1.586.092.018.123.048.123.123v.097H8.346v-.097l.019-.012zm7.553-.015c0-.063.027-.092.085-.092a.407.407 0 0 0 .192-.079l.108-.078.012-1.273c.015-1.424-.004-1.532-.266-1.621-.085-.028-.139-.076-.139-.12 0-.066.062-.074.694-.083 1.325-.02 1.607-.006 1.822.088.278.122.409.299.432.587.008.129.004.281-.012.336-.046.161-.258.358-.493.456l-.219.091.185.05c.439.115.716.53.659.975-.051.374-.228.587-.644.759-.22.09-.277.094-1.329.094h-1.091v-.094l.004.004zm2.004-.309c.231-.14.323-.33.296-.617-.038-.43-.373-.686-.897-.686h-.278l.012.62c.011.594.019.623.119.698.154.115.536.107.736-.015h.012zm-.189-1.706c.277-.097.424-.294.397-.533-.039-.322-.328-.5-.806-.5h-.273v1.108l.239-.002c.131-.001.327-.034.439-.073h.004zm1.865 2.018c0-.066.031-.094.119-.103a.38.38 0 0 0 .216-.129c.093-.112.096-.161.096-1.376 0-1.009-.015-1.279-.065-1.362-.081-.128-.185-.201-.289-.203-.054-.004-.081-.034-.081-.098 0-.093 0-.093.817-.093s.817 0 .817.09c0 .063-.027.089-.089.089a.469.469 0 0 0-.216.098l-.115.108-.016 1.294-.011 1.293.115.068c.093.052.189.063.471.048.431-.022.635-.119.755-.363.077-.16.166-.198.285-.13.042.026.035.101-.035.355-.05.176-.123.366-.162.419l-.073.097-1.271-.015-1.272-.015v-.09l.004.018zm3.183.012c0-.076.031-.103.139-.122.25-.045.269-.157.269-1.534 0-1.143-.007-1.231-.088-1.355a.43.43 0 0 0-.205-.159c-.081-.015-.115-.052-.115-.112 0-.086.011-.086.774-.086s.771.004.771.09c0 .06-.039.097-.112.116a.381.381 0 0 0-.192.138c-.074.101-.081.236-.081 1.365 0 1.394.019 1.506.254 1.551.096.019.127.049.127.124v.097h-1.545v-.097l.004-.016zm10.874-.007c0-.067.035-.097.139-.115.25-.045.269-.157.269-1.538 0-1.21-.003-1.229-.104-1.367-.057-.076-.15-.146-.204-.152-.073-.01-.1-.041-.1-.113v-.1h2.682v.431c0 .426-.004.43-.112.43-.088 0-.115-.026-.138-.142-.054-.243-.239-.325-.783-.344l-.458-.015-.031.194c-.016.105-.031.37-.031.584v.388l.385-.022c.424-.026.594-.093.64-.258.019-.075.058-.105.135-.105h.108v1.066h-.112c-.077 0-.116-.023-.116-.071-.003-.206-.223-.299-.682-.299h-.373l.015.575c.019.7.015.696.559.696.481 0 .732-.105.863-.359.065-.131.116-.176.189-.176.054 0 .115.019.131.045.042.06-.162.729-.243.8-.054.049-.285.056-1.356.049l-1.291-.008v-.089l.019.015zm5.006.01c0-.068.042-.113.142-.154a.722.722 0 0 0 .239-.175c.093-.112.093-.163.093-1.663 0-1.742-.004-1.761-.32-1.854-.124-.038-.162-.071-.162-.15v-.101h3.183v1.028h-.139c-.112 0-.139-.018-.139-.093 0-.153-.169-.359-.354-.43-.108-.041-.355-.075-.678-.086l-.513-.019v1.406l.374-.004c.501-.004.67-.06.778-.254.07-.127.108-.157.216-.157h.135v1.237l-.147-.015c-.1-.011-.154-.041-.169-.097-.073-.243-.351-.351-.906-.351h-.292l.019.729c.019.83.058.953.331 1.039.12.038.158.075.158.146v.094h-1.865v-.094l.016.018zm7.279-.008c0-.075.023-.102.088-.102.139 0 .297-.256.644-1.036.462-1.045.901-2.107.901-2.183 0-.052.047-.066.216-.065h.216l.613 1.42c.666 1.541.79 1.781.944 1.843.061.024.1.076.1.133 0 .093 0 .093-.775.093h-.774v-.098c0-.074.031-.103.135-.121.196-.036.208-.155.058-.561l-.131-.349h-1.076l-.107.288c-.139.362-.131.609.019.632.073.011.1.041.1.112v.101h-1.183v-.101l.012-.006zm2.092-1.437c0-.06-.335-.883-.362-.883-.02 0-.066.079-.104.176l-.193.452-.116.277h.386c.212 0 .385-.007.385-.019l.004-.003zm1.957 1.443c0-.071.031-.101.124-.12.246-.045.254-.101.273-1.443.02-1.383 0-1.499-.265-1.589-.081-.026-.139-.075-.139-.12 0-.063.05-.071.512-.071h.509l.297.341c.161.187.582.643.932 1.017.351.373.682.736.74.803l.104.124-.015-.927c-.016-1.01-.043-1.115-.286-1.171-.073-.015-.115-.056-.115-.104 0-.071.042-.079.613-.079.578 0 .612.008.612.082 0 .053-.038.086-.1.094a.373.373 0 0 0-.193.131c-.092.112-.096.168-.111 1.633l-.016 1.518h-.2c-.181 0-.216-.015-.351-.172-.123-.138-2.05-2.295-2.123-2.37-.012-.011-.012.441 0 1.006.019 1.148.05 1.282.266 1.323.1.019.131.045.131.12v.097h-1.225v-.097l.026-.026zm7.962-.004c0-.06.023-.101.061-.101.089 0 .258-.191.378-.434.166-.332.944-2.146 1.079-2.512l.123-.34.409.03.601 1.398c.331.77.639 1.462.686 1.54.1.183.25.329.327.329.035 0 .062.045.062.105v.105h-1.549v-.105c0-.071.023-.101.081-.101.219 0 .239-.172.073-.624l-.12-.318h-1.067l-.096.277c-.181.523-.174.669.042.669.062 0 .085.03.085.104v.105h-1.183v-.105l.008-.022zm1.93-1.836c-.089-.231-.169-.448-.185-.482-.015-.037-.108.12-.227.393-.112.25-.201.467-.201.482 0 .019.17.034.382.034h.381l-.158-.419.008-.008zm2.073 1.84c0-.079.023-.101.104-.101a.314.314 0 0 0 .193-.086c.077-.079.085-.176.096-1.365.008-.703.004-1.32-.011-1.368-.031-.116-.201-.258-.305-.258-.058 0-.084-.03-.084-.09 0-.09 0-.09.77-.09.744 0 .775.004.775.083 0 .052-.05.104-.135.134a.376.376 0 0 0-.177.165c-.066.157-.104 1.439-.062 2.131.027.482.046.598.119.669a.286.286 0 0 0 .17.086c.058 0 .081.03.081.105v.104h-1.545v-.104l.011-.015zm5.094-.008c0-.071.027-.093.112-.093.066 0 .147-.045.204-.109.089-.104.093-.153.093-1.398 0-.901-.016-1.316-.054-1.379-.069-.113-.177-.187-.278-.191-.053 0-.08-.034-.08-.105v-.101h2.728v.868l-.12-.012c-.088-.007-.131-.044-.169-.153-.089-.243-.239-.306-.783-.325l-.477-.015v1.159h.285c.393-.004.586-.067.67-.232.05-.097.097-.131.181-.131h.112v1.066h-.115c-.104 0-.128-.019-.128-.097 0-.184-.15-.251-.597-.266l-.404-.015v.576c0 .695.007.707.527.707.513 0 .779-.116.914-.401.065-.142.223-.183.273-.071.031.075-.096.558-.192.726l-.07.119-1.318-.007-1.317-.008v-.097l.003-.015zm-60.956-3.75l-.11-.077.27-.371c.149-.205.3-.373.335-.373.154 0 .644.093.632.123-.025.059-.923.781-.97.78a.436.436 0 0 1-.156-.078l-.001-.004zm-5.78-2.837h69.299v.368H.311v-.369l.001.001zm26.375-.841c-.364-.118-.569-.423-.503-.752.046-.22.185-.376.432-.478l.215-.09-.131-.067c-.073-.039-.131-.104-.131-.15 0-.074.336-.374.417-.374.019 0-.008-.068-.062-.151-.231-.357-.046-.872.389-1.074.235-.11.316-.114 1.141-.067.474.028.493.032.466.116l-.027.119c0 .017-.077.031-.177.031h-.177l.023.238c.054.521-.359.878-1.022.887-.342.005-.508.072-.373.149.038.022.262.096.493.164.755.221.894.332.863.684-.031.368-.358.688-.832.817-.27.074-.759.073-.991-.001l-.013-.001zm1.013-.254c.369-.166.529-.483.328-.647-.137-.111-.728-.282-.881-.254-.312.056-.605.4-.551.646.073.341.628.469 1.102.255h.002zm.122-1.858c.277-.152.385-.586.2-.799-.254-.294-.74.033-.744.501 0 .145.024.196.128.276.154.12.239.124.423.023l-.007-.001zm1.726.953c-.2-.038-.304-.157-.327-.37-.058-.546.45-1.348 1.021-1.606.296-.135.882-.148 1.271-.03.035.011.012.151-.081.44-.173.565-.277 1.13-.219 1.228.038.063.065.068.189.03.111-.037.15-.033.181.011.065.094.027.128-.235.21-.347.108-.509.086-.563-.075l-.039-.127-.184.093c-.313.161-.744.243-1.002.195l-.012.001zm.786-.369c.135-.057.27-.144.308-.195.062-.083.247-.699.32-1.058.031-.147.027-.152-.138-.193-.305-.078-.613.123-.856.561-.254.456-.32.864-.154.97.116.073.185.06.528-.086l-.008.001zm21.544.357c-.204-.045-.273-.109-.331-.295-.085-.285.112-.822.447-1.219.401-.475.844-.636 1.499-.542.173.024.328.058.343.073.019.015-.039.278-.127.584-.085.304-.162.674-.166.821l-.008.268.193-.007c.173-.008.193.003.193.085 0 .079-.043.105-.262.165-.359.101-.528.079-.548-.067-.007-.06-.023-.112-.03-.112-.008 0-.127.044-.262.097-.216.086-.659.198-.748.187-.015 0-.096-.019-.177-.034l-.016-.004zm.763-.352c.112-.052.239-.127.282-.168.1-.104.281-.639.377-1.11.027-.127.02-.135-.154-.176-.146-.037-.208-.034-.339.023-.289.123-.574.542-.724 1.058-.143.494.034.611.566.371l-.008.002zm-49.346.258c-.012-.052.069-.433.181-.848.224-.819.224-.886-.023-.823-.119.03-.131.023-.131-.06 0-.078.042-.104.262-.163.143-.038.335-.074.42-.079.15-.008.162-.001.173.129.008.076-.069.451-.173.834-.104.383-.177.725-.162.76.023.05.07.058.235.035.197-.027.208-.024.193.066-.012.074-.069.108-.266.164a2.172 2.172 0 0 1-.466.071c-.185 0-.216-.011-.239-.09l-.004.004zm1.749.019l-.104-.078.355-1.399c.193-.769.347-1.45.339-1.515-.015-.121-.031-.127-.208-.079-.085.024-.1.013-.1-.075 0-.119.162-.177.605-.216.254-.023.262-.022.262.074 0 .055-.07.393-.158.751a10.41 10.41 0 0 0-.158.704c0 .041.05.034.196-.025.509-.202.948-.19 1.11.027.15.205.073.732-.169 1.166-.124.228-.498.58-.702.662-.266.108-1.106.112-1.256 0l-.012.003zm1.153-.262c.231-.145.485-.639.555-1.073.073-.437-.247-.523-.756-.205a.61.61 0 0 0-.239.273c-.081.202-.25.856-.25.973 0 .172.443.192.693.029l-.003.003zm1.737.21c-.123-.116-.131-.15-.131-.423.008-.694.444-1.314 1.045-1.484.3-.086.566-.056.743.08.104.08.124.129.124.297 0 .422-.424.744-1.041.781-.177.012-.339.041-.354.066-.05.071-.039.307.019.408.116.194.278.2.667.019.242-.112.293-.124.331-.071.081.114.043.151-.308.301-.293.124-.405.149-.651.149-.27 0-.309-.01-.432-.125l-.012.002zm.817-.987c.39-.097.644-.471.447-.651-.123-.113-.239-.109-.4.013-.128.098-.336.405-.397.589-.023.075-.012.09.077.09a1.7 1.7 0 0 0 .281-.045l-.008.004zm1.534 1.097c0-.006.081-.325.181-.707.1-.382.185-.776.185-.874v-.18l-.181.026c-.162.023-.181.017-.181-.056 0-.089.146-.159.516-.242.255-.056.351-.018.351.142v.097l.162-.099c.285-.172.458-.206.663-.12.1.041.173.094.165.12-.123.392-.192.516-.293.516-.088 0-.104-.019-.104-.139 0-.299-.285-.299-.497-.003-.127.187-.262.605-.37 1.162-.031.169-.081.307-.104.314-.081.023-.481.06-.481.049l-.012-.006zm2.285-.039c-.05-.052-.023-.202.239-1.271l.108-.441h-.154c-.085 0-.154-.011-.154-.023 0-.063.104-.183.158-.183.111 0 .323-.194.416-.377.1-.202.139-.236.289-.236.1 0 .108.015.081.135a10.43 10.43 0 0 0-.058.288l-.027.153h.212c.216 0 .246.034.185.183-.019.049-.089.067-.243.067-.254 0-.212-.082-.412.819-.147.662-.139.722.108.658.208-.052.223-.048.208.056-.012.071-.07.109-.243.161-.277.086-.628.097-.697.022l-.016-.011zm1.838-.052c-.331-.322-.092-1.245.439-1.675.216-.176.555-.31.775-.31.143 0 .451.13.497.209.073.123.05.419-.042.557-.189.284-.605.467-1.056.467h-.266v.217c0 .423.196.494.705.269.162-.071.305-.123.316-.112a.306.306 0 0 1 .039.101c.011.068-.05.112-.32.236-.293.134-.378.153-.651.153-.282 0-.328-.011-.424-.105l-.012-.007zm.802-1.006c.242-.071.408-.198.481-.355.062-.131.062-.153-.019-.251-.123-.149-.247-.153-.435-.003-.147.116-.393.501-.393.613 0 .06.173.056.366-.004zm17.089 1.088c-.061-.056-.023-.299.197-1.136.297-1.137.455-1.81.455-1.918 0-.079-.02-.086-.158-.064-.143.022-.158.015-.158-.075 0-.101.115-.149.566-.228.235-.037.301-.011.301.124 0 .063-.151.71-.339 1.443-.189.733-.343 1.394-.343 1.469v.138l.208-.022c.196-.022.208-.019.192.067-.011.071-.069.109-.262.161-.254.075-.597.097-.651.049l-.008-.008zm1.715-.022c-.054-.083-.023-.258.17-.946.104-.355.177-.681.169-.718-.019-.071-.031-.075-.227-.034-.104.023-.127.015-.127-.056 0-.097.196-.183.551-.247.254-.041.362-.018.362.075 0 .034-.092.412-.204.838-.112.426-.193.796-.174.819.02.026.108.033.232.018.192-.022.204-.018.188.067-.011.072-.069.109-.266.161-.292.086-.616.097-.662.026l-.012-.003zm1.68-.019c-.015-.037-.004-.172.027-.295.104-.412.324-1.361.324-1.38 0-.011-.062-.019-.139-.019-.196 0-.158-.116.073-.224.139-.064.22-.146.332-.34.131-.221.169-.254.281-.254h.127l-.061.258a3.196 3.196 0 0 0-.062.287c0 .015.1.03.227.03.239 0 .247.004.201.154-.023.082-.058.093-.262.093h-.235l-.155.692c-.084.381-.142.721-.127.759.023.052.058.06.178.026.208-.052.219-.049.219.06 0 .082-.038.108-.266.164-.35.09-.636.09-.674 0l-.008-.011zm1.877-.022c-.112-.086-.135-.135-.15-.367-.035-.516.227-1.099.616-1.368.432-.296.902-.333 1.164-.097.123.112.135.142.112.329-.043.407-.474.702-1.068.729-.37.018-.408.059-.335.347.081.314.223.348.678.154.301-.127.37-.127.37 0 0 .13-.543.344-.936.362-.289.015-.336.008-.451-.086v-.003zm.963-1.1c.285-.13.409-.418.247-.579-.204-.202-.578.063-.767.542l-.066.176.205-.026a1.68 1.68 0 0 0 .385-.109l-.004-.004zm10.878 1.178c0-.007.081-.325.181-.707.101-.381.185-.773.185-.874v-.18l-.181.026c-.162.023-.181.019-.181-.056 0-.097.081-.138.451-.224.32-.075.416-.045.416.127v.097l.162-.097c.285-.172.459-.206.663-.123.1.041.177.086.177.097 0 .015-.042.142-.1.28-.085.213-.12.258-.204.258-.085 0-.104-.022-.104-.138 0-.28-.266-.303-.467-.037-.15.201-.227.422-.354.998-.054.261-.112.486-.127.497-.027.026-.505.086-.505.064l-.012-.008zm5.249-.049c-.035-.086.007-.34.181-1.065l.15-.617-.127-.011c-.15-.015-.177-.15-.035-.191.162-.045.347-.213.436-.396.1-.202.138-.236.289-.236.1 0 .107.015.08.135-.015.075-.042.206-.057.288l-.027.153h.212c.215 0 .246.034.185.183-.02.049-.089.068-.243.068-.251 0-.212-.083-.412.818-.147.662-.139.722.107.658.208-.052.224-.048.208.056-.011.071-.069.109-.242.161-.301.094-.651.097-.69.011l-.015-.015zm1.838-.041c-.343-.31-.104-1.241.431-1.675.216-.175.555-.31.775-.31.142 0 .451.131.497.209.073.124.05.419-.043.561-.192.288-.605.468-1.059.468h-.27l.023.254c.035.4.197.456.694.232.162-.071.304-.124.316-.113a.332.332 0 0 1 .038.101c.016.068-.05.113-.32.236-.289.135-.377.153-.639.153-.266 0-.32-.011-.424-.104l-.019-.012zm.955-1.069c.32-.142.463-.471.262-.609-.131-.09-.227-.075-.4.063-.147.116-.394.501-.394.617 0 .067.313.026.528-.071h.004zm1.384 1.144c0-.019.084-.351.185-.74.104-.389.181-.767.173-.838-.012-.119-.023-.127-.181-.119-.127.003-.17-.011-.189-.071-.015-.064.023-.094.212-.157a3.83 3.83 0 0 1 .405-.109c.177-.03.173-.033.285.21.004.003.123-.049.269-.116.316-.142.367-.15.559-.041l.147.078-.097.266c-.081.224-.115.269-.2.269s-.104-.023-.104-.135c0-.359-.378-.288-.582.109-.05.097-.154.441-.227.762a8.019 8.019 0 0 1-.151.595c-.038.03-.493.056-.493.03l-.011.007zm2.277 0c0-.019.073-.291.166-.606.096-.344.165-.684.169-.856l.008-.288-.162.015c-.127.012-.169-.003-.185-.063-.019-.064.019-.09.208-.142.413-.116.509-.124.59-.049a.257.257 0 0 1 .073.165c0 .052.008.097.019.097.008 0 .143-.056.301-.124.366-.157.851-.239.998-.168.092.045.1.068.073.258a10.2 10.2 0 0 1-.166.703 6.795 6.795 0 0 0-.146.639c-.012.142-.012.142.177.139.131-.004.201.015.216.056.035.086-.008.112-.293.187-.324.086-.624.086-.659 0-.015-.038.054-.393.154-.797.201-.807.212-.901.116-.931-.1-.033-.447.12-.655.288-.174.139-.193.184-.301.587-.061.243-.127.527-.146.636-.019.108-.058.206-.085.213-.139.037-.485.056-.485.026l.015.015zm3.121-.03c-.015-.037.066-.415.181-.845.116-.426.201-.8.185-.833-.015-.042-.058-.045-.173-.015a2.407 2.407 0 0 1-.162.041c-.004 0-.012-.041-.012-.094 0-.078.043-.104.239-.157.54-.146.706-.119.652.097-.012.057-.108.412-.208.793-.101.381-.174.722-.158.755.019.045.077.056.235.034.192-.023.204-.019.192.067-.031.176-.901.329-.967.172l-.004-.015zm1.719 0c-.031-.071.008-.265.185-.979.196-.789.196-.718.031-.718-.201 0-.166-.112.065-.221.135-.063.216-.146.324-.329.119-.198.169-.246.27-.258.138-.015.138-.003.042.438l-.027.134h.239c.2 0 .235.012.212.064a.375.375 0 0 0-.027.123c0 .045-.062.06-.243.06h-.243l-.15.692c-.081.381-.135.721-.119.759.023.056.057.059.181.03.208-.053.219-.049.219.059 0 .086-.038.109-.266.165-.346.09-.635.09-.674 0l-.019-.019zm1.873-.03c-.128-.101-.131-.112-.131-.508 0-.385.007-.419.173-.718.204-.366.432-.565.805-.688.648-.217 1.11.153.825.658-.162.288-.59.494-1.029.494-.262 0-.281.007-.308.108a.522.522 0 0 0 .1.437c.104.109.281.09.601-.059.239-.109.289-.12.324-.071.081.116.042.16-.262.291a1.51 1.51 0 0 1-.628.15c-.293.015-.336.007-.455-.086l-.015-.008zm.994-1.106c.308-.154.412-.46.196-.587-.081-.049-.142-.056-.239-.026-.158.044-.389.314-.481.564l-.074.194.212-.026c.116-.015.292-.067.392-.119h-.006zM.004 27.36c.008-.04.055-.079.104-.087.135-.023.25-.131.343-.317.119-.246.497-1.959.508-2.314.008-.303.008-.306-.138-.389-.282-.16-.204-.187.582-.187.624 0 .728.012.728.064 0 .037-.058.075-.139.09-.289.052-.401.31-.674 1.581-.254 1.189-.254 1.167-.139 1.271.089.079.135.086.49.071.477-.022.651-.093.816-.344.131-.194.139-.198.232-.145.054.029.05.071-.012.235a1.97 1.97 0 0 1-.177.366l-.104.165-1.218.011c-1.14.008-1.218.004-1.202-.063v-.008zm23.014.012c0-.032.077-.092.173-.133a.534.534 0 0 0 .27-.261c.131-.241.524-1.989.532-2.359.007-.279.004-.288-.139-.369-.304-.176-.235-.187 1.152-.187 1.272 0 1.299.002 1.272.081a3.839 3.839 0 0 0-.085.359c-.046.236-.069.28-.154.292-.081.011-.1-.008-.1-.098 0-.272-.178-.351-.817-.351h-.44l-.123.523c-.069.288-.135.554-.146.595-.02.063.019.071.381.071.455 0 .59-.045.721-.236.119-.172.273-.183.239-.022l-.104.49c-.062.299-.097.377-.155.377-.046 0-.084-.045-.104-.123a.275.275 0 0 0-.131-.172c-.107-.052-.824-.079-.874-.03-.031.026-.166.617-.224.987-.027.176-.019.198.085.262.092.056.197.063.516.052.474-.022.644-.09.839-.34.085-.109.166-.172.201-.157.089.03.079.105-.055.392-.2.43-.089.4-1.484.4-1.021 0-1.221-.011-1.221-.059l-.025.016zm23.116.001c0-.033.07-.08.15-.105.289-.088.386-.322.671-1.652.247-1.144.243-1.327-.046-1.41-.05-.015-.085-.048-.073-.075.015-.033.369-.05 1.283-.058 1.24-.011 1.264-.011 1.233.067a4.198 4.198 0 0 0-.085.359c-.046.236-.069.281-.154.292-.085.011-.1-.008-.1-.116 0-.262-.22-.344-.84-.325l-.359.011-.127.531a9.502 9.502 0 0 0-.127.583c0 .075.694.067.859-.011a.44.44 0 0 0 .185-.187c.035-.079.093-.127.143-.127.108 0 .108-.03-.012.523-.081.389-.112.464-.181.464-.05 0-.081-.03-.081-.075 0-.191-.424-.336-.817-.277l-.173.027-.093.459c-.161.808-.154.883.093.972.273.101.115.139-.613.15-.597.011-.713.004-.713-.049l-.023.029zm-26.692-.883c-.204-.084-.382-.342-.382-.552 0-.326.32-.618.679-.617.427.002.689.236.689.615.004.482-.485.759-.982.557l-.004-.003zm23.162.019a.833.833 0 0 1-.269-.209c-.104-.125-.127-.192-.124-.367.008-.376.266-.609.682-.609.209 0 .278.021.417.123.316.228.366.61.115.879a.73.73 0 0 1-.813.183h-.008zm-27.206-1.46c-.089-.089-.096-.079.42-.611l.174-.179.259.052c.143.029.26.065.26.08 0 .028-.975.74-1.013.74a.4.4 0 0 1-.104-.081l.004-.001zm23.148 0l-.101-.073.343-.354c.189-.194.358-.353.381-.353.112 0 .501.101.493.127-.011.027-.859.642-.967.703-.027.013-.092-.009-.146-.049l-.003-.001zm30.248.001l-.11-.075.356-.353c.195-.194.372-.353.392-.353.092 0 .501.098.497.119 0 .023-.86.648-.971.709-.027.015-.1-.006-.159-.047h-.005zm-64.938-.211c-.185-.167-.004-.488.274-.488.194 0 .295.091.295.267 0 .274-.357.413-.569.221zm30.707.029c-.111-.076-.105-.33.012-.435.187-.169.545-.056.545.172 0 .246-.342.411-.554.269l-.003-.006zm30.22-.029c-.189-.17-.004-.488.281-.488.285 0 .409.288.201.474-.142.126-.355.133-.486.014h.004zm-39.867-1.174c-.069-.069-.054-.094.275-.417l.351-.344.26.056c.142.03.258.063.258.078-.004.041-.917.673-.998.692-.042.011-.108-.015-.146-.056v-.009z"/><path d="M40.046 21.351l.106-.248a5.18 5.18 0 0 1 .636-1.163c.285-.397.913-.982 1.174-1.094.321-.138.72-.186 1.214-.147.424.033 1.725.225 2.25.332.4.081.986.089 1.262.017.53-.14.845-.409.994-.852.115-.34.113-.651-.003-.856-.156-.277-.13-.352.25-.677.188-.165.342-.314.342-.333 0-.112-.262-.549-.328-.553a.405.405 0 0 1-.181-.079l-.108-.078.224-.105c.308-.142.535-.362.535-.519 0-.068-.065-.232-.146-.367-.154-.258-.193-.505-.108-.65.054-.098.154-.139.632-.262.401-.105.547-.213.605-.445.046-.198.023-.325-.108-.565-.108-.194-.809-1.162-1.009-1.398-.274-.318-.609-.867-.706-1.163-.096-.291-.1-.31-.027-.684.151-.796.062-1.454-.366-2.736-.319-.958-.404-1.189-.501-1.369-.181-.321-.158-.396.212-.669.178-.131.339-.269.363-.31.111-.187-.016-.55-.224-.651-.135-.063-.208-.019-.343.206-.104.172-.146.202-.254.202-.181 0-.212-.068-.097-.206.132-.165.124-.191-.088-.217-.158-.019-.239-.075-.582-.389-.455-.418-.763-.613-1.372-.867-.281-.116-.377-.172-.277-.157.088.011.397.034.69.049.843.037 1.048-.064 1.244-.614.131-.373.197-.545-.112-.807L44.738 0H69.98v21.351H40.046z" fill="#e2011c"/><path d="M18.52 21.351c-.183-.017-.341-.025-.352-.035-.02-.017.187-.137 1.135-.658.304-.167.429-.257.387-.278-.035-.016-.3-.042-.59-.058-.431-.022-.556-.016-.682.036a8.093 8.093 0 0 1-.758.207c-.825.195-1.099.329-1.364.658l-.101.128H0V0h32.139l-.622.366c-.343.154-.742.368-.886.475-.488.363-1.147 1.19-1.311 1.647-.062.168-.116.231-.301.345-.285.174-.624.506-.905.885-.382.513-1.11 1.671-1.252 1.992-.224.498-.205.877.123 2.366.142.655.297 1.321.343 1.479.046.158.096.426.112.596.026.302.05.368.246.739a.836.836 0 0 1 .096.257c0 .039.039.094.089.123.05.029.089.095.089.154 0 .071.104.207.331.432.52.516.898 1 .898 1.153 0 .125-.204.158-.536.085-.385-.086-.701-.271-1.187-.697-.208-.182-.373-.303-.373-.271 0 .032.138.201.312.374.343.346.397.44.324.566-.066.11-.224.142-.44.088-.25-.061-.393.025-.354.208.023.116.019.128-.054.105a3.851 3.851 0 0 0-.721-.131c-.254-.022-.273-.033-.424-.224-.115-.146-.208-.213-.327-.243-.451-.112-1.576-.292-2.328-.366-1.325-.131-1.645-.143-2.281-.071-.489.052-.62.086-.886.205-.474.217-1.295.897-1.295 1.073 0 .082.181.056.385-.06.625-.347 2.771-.841 3.823-.878.52-.019.493.003-.135.108-.173.03-.582.124-.909.213-.328.09-.894.225-1.256.303-.363.075-.775.176-.91.221l-.25.082.385.004c1.973.018 4.216.583 5.133 1.29.393.302.535.34 1.113.284.794-.075 1.819-.415 2.27-.756.197-.145.355-.205.355-.127 0 .135-.259.857-.37 1.032-.124.202-.131.228-.066.273.039.026.062.06.046.071-.015.015.016.038.07.053.15.044.111.086-.127.138-.232.056-.417.149-.417.213 0 .022.031.041.07.041.115 0 .031.075-.124.105-.104.022-.123.037-.077.063.047.026.047.038.004.038-.031 0-.058.041-.058.093 0 .064-.046.109-.138.146-.228.093-.166.142.146.116.158-.015.254-.015.216 0-.039.011-.293.116-.567.232-.277.112-.635.25-.797.303-.185.059-.301.119-.312.164-.016.071.069.067.285-.007.038-.015.073-.008.073.011 0 .018-.474.265-1.052.549-.582.284-1.121.576-1.206.647-.085.075-.189.135-.239.135-.046 0-.108.048-.139.104-.088.176-.073.199.139.165.312-.049.459-.045.478.011.011.03-.019.052-.07.052a.217.217 0 0 0-.142.06.286.286 0 0 1-.173.071.325.325 0 0 0-.216.146c-.05.071-.131.142-.181.153-.05.012.02.015.158.004 2.046-.138 2.427-.205 3.253-.583a7.927 7.927 0 0 0 1.954-1.282c.15-.139.289-.251.308-.251.07 0 .032.228-.072.434-.181.351-.559.673-1.337 1.14-.393.236-.817.46-.943.494-.39.112-1.021.231-1.684.317-2.155.281-2.98.494-3.797.984-.138.078-.281.142-.32.134-.038-.004-.142.045-.227.112-.243.191-.065.157.443-.078.524-.243.767-.281.355-.056-.505.276-.887.452-1.264.452h-2.01l.024-.042zm-2.677-2.382c.082-.031.352-.168.601-.304.25-.136.545-.286.658-.332l.705-.287c.577-.235 1.424-.457 1.472-.386.018.025.144.053.282.061.191.012.225.024.146.049-.056.018-.103.049-.103.069 0 .074.426.052.605-.032.071-.034.23-.071.353-.086.155-.019.225-.045.225-.086 0-.049.04-.056.178-.034.192.03.603-.041 1.711-.291.75-.172 1.318-.344 1.817-.55l.361-.149-.361-.21c-.88-.508-1.765-.822-3.706-1.312-.338-.086-.634-.176-.659-.198-.03-.026-.016-.03.045-.011.194.063.342.074.342.026 0-.06-.147-.109-.435-.146-.263-.034-.433-.105-.251-.105.284 0-.203-.164-.748-.246-.403-.064-.426-.079-.258-.154.146-.063.304-.306.263-.404-.035-.086-.077-.074-.297.057-.42.254-.805.673-1.021 1.106-.123.247-.081.269.555.296.524.018.532.022.397.086a1.449 1.449 0 0 1-.335.093c-.37.049-.574.209-.389.303.054.026.034.048-.101.108-.15.064-.158.079-.088.112a.78.78 0 0 0 .293.027c.162-.012.235.003.312.063l.1.079-.2.112a.892.892 0 0 0-.278.247 2.484 2.484 0 0 1-.339.381c-.142.138-.262.28-.262.318 0 .033-.208.217-.466.4-.69.497-.991.774-.991.905 0 .071-.038.13-.107.172-.216.127-.328.272-.208.272a.96.96 0 0 0 .196-.056l-.014.037zm5.323-.48c.17-.02.368-.068.438-.106l.129-.069-.22-.098-.219-.099-.219.08c-.121.044-.288.104-.371.132-.336.115-.379.269-.065.227.12-.015.356-.045.527-.064v-.003zm-7.704-1.868c1.013-.957 1.729-1.526 2.637-2.094.309-.193.527-.305.538-.275.029.078.161.056.376-.068.248-.142.372-.288.68-.789.32-.523.442-.654.904-.975.219-.15.535-.378.709-.501.25-.18.308-.21.289-.139-.016.053-.004.09.031.09.104 0 .593-.191.608-.236.027-.074-.466-.149-.832-.127-.281.015-.377.045-.728.213-.817.4-1.41.83-2.54 1.851-.813.733-1.452 1.226-1.776 1.365-.104.045-.185.142-.312.374-.247.456-.694 1.11-1.114 1.641-.397.501-.481.673-.173.351.108-.108.428-.422.717-.695l-.014.014zm10.146 4.495c1.218-.229 1.353-.246 2.207-.28.96-.038 1.082-.06 1.66-.305.185-.078.257-.093.283-.056.045.065.358-.09.97-.477.25-.158.604-.361.786-.449.275-.135.358-.158.491-.135.141.023.183.007.363-.135.499-.397.925-.581 1.351-.582.127 0 .171.017.171.066 0 .042.025.057.068.042.127-.045.069.004-.257.225-.377.25-.343.329.043.086.37-.232.374-.232.374-.139 0 .053-.143.187-.401.382-.59.441-1.006.807-1.638 1.439l-.566.55h-7.202l1.297-.236v.004zm.012-8.364a.387.387 0 0 1 .159 0c.044.01.008.019-.079.019-.088 0-.123-.009-.08-.019z" fill="#003189"/><path d="M44.846 11.19c-.199-.028-.097-.094.144-.094s.369-.084.369-.243c0-.074-.016-.086-.093-.064-.065.018-.112.003-.158-.054-.039-.052-.139-.089-.285-.107-.258-.031-.678-.257-.605-.325.027-.023.162-.051.297-.061.239-.018.254-.026.3-.158.039-.098.089-.146.174-.164a.651.651 0 0 0 .235-.121c.065-.053.269-.187.454-.296.316-.187.513-.385.443-.448-.073-.068-.755-.139-1.078-.116-.374.026-1.018.149-1.284.243-.273.093-.196.011.185-.191.513-.276 1.499-.531 2.043-.531.212 0 .921.15 1.005.213.166.124-.015.557-.319.774l-.128.09.208.202-.107.078a.41.41 0 0 1-.178.079c-.038 0-.138.056-.219.127-.124.108-.139.142-.104.228a.191.191 0 0 1-.008.183c-.031.053-.039.169-.019.303.038.273-.016.37-.239.426-.162.041-.763.049-1.025.012l-.008.015z" fill="#7f7f7f"/></g></svg>